# xmcd
#
# Track frame offsets:
#	150
#	14392
#	36785
#	53745
#	73715
#	86017
#	101662
#	113525
#	129285
#	152392
#	167355
#	189120
#
# Disc length: 2805 seconds
# Revision: 1
# Processed by: cddbd v1.5.2PL0 Copyright (c) Steve Scherf et al.
# Submitted via: dBpowerAMP V12.0
#
DISCID=840af30c
DTITLE=Michelle Willson - Evil Gal Blues
DYEAR=1994
DGENRE=Blues
TTITLE0=As Long as I'm Movin'
TTITLE1=Evil Gal Blues
TTITLE2=Blues For a Day
TTITLE3=You Got What it Takes
TTITLE4=At Last
TTITLE5=I Know How to do it
TTITLE6=Voodoo Voodoo
TTITLE7=Big Long Slidin' Thing
TTITLE8=Three Aces Club
TTITLE9=My Man Called me
TTITLE10=Cry me a River
TTITLE11=I'm Just Your Fool
EXTD=
EXTT0=
EXTT1=
EXTT2=
EXTT3=
EXTT4=
EXTT5=
EXTT6=
EXTT7=
EXTT8=
EXTT9=
EXTT10=
EXTT11=
PLAYORDER=
